<?xml version="1.0" standalone="no"?><!-- Generator: Gravit.io --><svg xmlns="http://www.w3.org/2000/svg" xmlns:xlink="http://www.w3.org/1999/xlink" style="isolation:isolate" viewBox="0 0 425.2 421.231" width="425.2" height="421.231"><defs><clipPath id="_clipPath_yDnyk6k0xK9wdUUiKj3EA5FyitraGJNM"><rect width="425.2" height="421.231"/></clipPath></defs><g clip-path="url(#_clipPath_yDnyk6k0xK9wdUUiKj3EA5FyitraGJNM)"><path d=" M 169.067 1.098 C 169.6 1.898 170.667 2.565 171.467 2.565 C 174.133 2.565 186.267 9.365 191.733 13.898 C 204.267 24.698 220.4 48.031 246.533 93.365 C 262.8 121.765 263.067 117.898 243.867 128.698 C 237.6 132.165 232.533 135.631 232.533 136.298 C 232.533 138.431 319.867 136.831 322.4 134.698 C 323.467 133.765 326.8 128.965 329.6 124.165 C 332.4 119.231 342.133 102.698 351.067 87.365 C 360 72.031 367.067 59.231 366.667 58.965 C 366.267 58.565 361.333 60.965 355.6 64.165 C 349.867 67.498 343.333 71.231 340.933 72.298 L 336.8 74.431 L 331.067 64.965 C 328 59.631 324.8 54.165 324 52.698 C 311.733 29.498 298.4 13.631 287.067 8.165 C 274.267 2.031 265.467 1.098 215.333 0.298 C 180.533 -0.235 168.4 -0.102 169.067 1.098 Z " fill="rgb(0,0,0)"/><path d=" M 139.867 7.098 C 125.733 11.631 121.867 15.631 104.933 44.165 C 94.267 62.031 69.067 106.031 64.8 114.165 C 63.333 116.831 64.533 117.765 88.267 131.631 C 134.533 158.698 138 160.565 139.333 158.431 C 140.8 156.165 174.933 97.765 193.6 65.365 C 206.667 42.831 207.067 42.031 205.2 38.431 C 202.267 32.831 189.2 19.231 182.133 14.565 C 169.733 6.431 152 3.231 139.867 7.098 Z " fill="rgb(0,0,0)"/><path d=" M 361.2 132.165 C 354.133 135.765 313.067 158.831 301.6 165.631 L 292.667 170.831 L 294.8 174.965 C 297.333 180.031 312.4 206.298 345.067 263.231 L 361.067 290.831 L 369.067 289.898 C 393.2 287.231 413.6 274.698 421.6 257.498 C 424.533 251.365 425.2 247.898 425.2 239.898 C 425.2 230.565 424.8 228.965 418.8 217.231 C 410.267 200.165 369.6 130.165 367.867 129.765 C 367.2 129.498 364.133 130.565 361.2 132.165 Z " fill="rgb(0,0,0)"/><path d=" M 1.867 151.365 C 1.867 152.031 8 155.898 15.333 159.898 C 22.667 163.898 29.333 168.031 30.133 168.831 C 31.067 170.031 28 176.698 18.8 192.831 C 1.6 222.965 0.133 226.965 0 241.898 C 0 256.165 2.667 265.231 12.667 284.831 C 23.067 305.098 51.6 354.565 52.8 354.565 C 53.467 354.565 53.733 354.031 53.333 353.498 C 52.933 352.831 52.133 348.831 51.467 344.431 C 49.067 330.031 52.533 316.698 65.467 290.165 C 76 268.431 105.867 215.765 108.133 214.965 C 108.933 214.565 115.733 217.765 123.2 221.898 C 130.533 226.165 136.933 229.231 137.333 228.965 C 137.867 228.298 125.867 206.965 104.533 170.831 L 93.333 151.898 L 83.2 151.898 C 77.733 151.898 57.2 151.498 37.6 150.965 C 16.4 150.565 1.867 150.698 1.867 151.365 Z " fill="rgb(0,0,0)"/><path d=" M 243.333 303.098 C 231.467 323.898 221.867 341.631 221.867 342.298 C 221.867 343.098 230.667 359.231 241.333 378.165 C 252.133 397.098 261.867 414.565 262.933 416.831 C 264.133 419.231 265.467 421.231 266.133 421.231 C 266.667 421.231 267.2 413.498 267.2 404.165 L 267.2 386.965 L 300.267 385.765 L 333.2 384.565 L 342.267 380.165 C 353.733 374.831 363.733 364.831 375.6 346.965 C 385.467 332.165 418 276.965 417.333 276.165 C 417.067 276.031 412.933 278.698 408.267 282.298 C 398.667 289.498 387.067 293.765 371.2 296.031 C 365.733 296.831 340 297.765 314.267 298.165 L 267.2 298.965 L 267.2 282.031 C 267.2 272.831 266.667 265.231 266 265.231 C 265.333 265.231 255.2 282.298 243.333 303.098 Z " fill="rgb(0,0,0)"/><path d=" M 64.933 304.965 C 59.067 318.298 57.6 326.298 58.133 339.765 C 59.067 360.298 66.8 373.631 82.267 381.231 L 90.533 385.231 L 148.267 386.165 L 205.867 386.965 L 205.867 342.831 L 205.867 298.565 L 136.8 298.565 L 67.733 298.565 L 64.933 304.965 Z " fill="rgb(0,0,0)"/></g></svg>