<?xml version="1.0" encoding="UTF-8"?>

<!-- Monash BrewLab icon -->
<svg xmlns="http://www.w3.org/2000/svg" viewBox="0 0 120 120">
	
	<!-- Colour -->
	<style>
		.brewlab-logo {
			fill: #231f20;
			}
	</style>
	
	<!-- Label for accessibility -->
	<title>Monash BrewLab icon</title>
	
	<!-- Gear and beaker logomark -->
	<g class="brewlab-logo">
		<!-- Gear outline -->
		<path d="m118.19,60c0-1.48.38-2.86,1.03-4.07.62-1.13.89-2.43.73-3.72,0,0,0-.02,0-.04-.17-1.29-.77-2.48-1.66-3.43-.95-1-1.66-2.24-2.05-3.66-.38-1.43-.37-2.87-.03-4.2.31-1.27.24-2.61-.26-3.81-.03-.06-.06-.12-.08-.19-.5-1.2-1.38-2.19-2.5-2.87-1.18-.72-2.19-1.73-2.93-3.01-.74-1.28-1.1-2.66-1.13-4.03-.03-1.3-.45-2.57-1.24-3.6-.06-.08-.12-.16-.18-.24-.79-1.03-1.9-1.75-3.14-2.12-1.32-.39-2.57-1.11-3.61-2.14-1.04-1.04-1.75-2.29-2.14-3.61-.36-1.24-1.09-2.35-2.11-3.14,0-.02-.02-.02-.04-.03-1.02-.79-2.3-1.21-3.59-1.25-1.38-.03-2.76-.4-4.03-1.14-1.28-.74-2.29-1.77-3-2.95-.67-1.11-1.66-2-2.86-2.51-.06-.02-.13-.05-.18-.08-1.21-.5-2.54-.57-3.82-.27-1.34.32-2.78.32-4.2-.06-1.42-.39-2.66-1.11-3.65-2.06-.94-.9-2.14-1.5-3.43-1.68-.1,0-.19-.02-.29-.03-1.29-.17-2.59.11-3.73.73-1.21.65-2.59,1.03-4.06,1.03s-2.86-.38-4.07-1.03c-1.13-.62-2.43-.9-3.71-.73h-.05c-1.29.17-2.48.77-3.42,1.66-1,.95-2.24,1.66-3.66,2.04-1.42.38-2.86.37-4.2.04-1.27-.31-2.61-.24-3.82.26-.06.02-.12.05-.18.07-1.2.5-2.19,1.39-2.87,2.5-.72,1.18-1.73,2.2-3.01,2.93-1.28.74-2.66,1.1-4.04,1.12-1.3.03-2.57.45-3.61,1.24-.08.06-.15.12-.23.19-1.03.79-1.76,1.91-2.13,3.15-.38,1.32-1.1,2.56-2.14,3.6-1.05,1.04-2.29,1.75-3.61,2.14-1.25.36-2.35,1.09-3.14,2.11,0,.02-.02.02-.03.04-.79,1.03-1.22,2.3-1.25,3.6-.03,1.37-.41,2.76-1.14,4.03-.74,1.28-1.77,2.29-2.94,3-1.11.67-2.01,1.66-2.51,2.86-.02.06-.05.13-.07.19-.5,1.2-.58,2.55-.27,3.81.32,1.33.33,2.77-.06,4.19-.38,1.42-1.1,2.66-2.06,3.65-.9.95-1.5,2.14-1.67,3.43-.02.1-.03.19-.04.29-.17,1.29.1,2.59.73,3.72.66,1.21,1.03,2.59,1.03,4.07s-.38,2.85-1.03,4.07c-.62,1.13-.9,2.43-.73,3.72v.04c.17,1.29.77,2.48,1.66,3.43.94,1,1.66,2.24,2.04,3.66.38,1.43.37,2.87.04,4.2-.31,1.27-.24,2.61.26,3.81.02.06.05.12.08.19.5,1.2,1.38,2.19,2.49,2.87,1.18.72,2.2,1.73,2.94,3.01.74,1.28,1.1,2.66,1.13,4.03.03,1.3.45,2.57,1.23,3.6.06.08.13.16.18.24.79,1.03,1.9,1.75,3.15,2.13,1.32.39,2.56,1.1,3.61,2.14,1.04,1.04,1.75,2.29,2.14,3.6.37,1.24,1.1,2.35,2.11,3.14.02,0,.03.02.04.02,1.03.8,2.3,1.21,3.6,1.25,1.38.03,2.76.4,4.03,1.15,1.28.74,2.29,1.76,3,2.94.67,1.12,1.66,2,2.86,2.51.06.02.12.06.18.08,1.21.5,2.54.57,3.81.27,1.34-.32,2.78-.32,4.2.06,1.42.38,2.66,1.1,3.66,2.05.94.91,2.14,1.5,3.43,1.68.1,0,.19.02.29.03,1.29.17,2.58-.11,3.73-.73,1.21-.65,2.59-1.03,4.06-1.03s2.86.38,4.06,1.04c1.14.61,2.43.89,3.72.72h.05c1.29-.17,2.48-.77,3.42-1.66.99-.95,2.24-1.66,3.66-2.04,1.42-.38,2.86-.37,4.2-.04,1.26.31,2.61.24,3.82-.26.06-.02.12-.05.18-.07,1.19-.5,2.19-1.38,2.86-2.5.72-1.17,1.74-2.2,3.02-2.93,1.28-.73,2.66-1.09,4.03-1.12,1.3-.03,2.58-.44,3.61-1.24.08-.06.16-.12.24-.19,1.02-.79,1.76-1.9,2.12-3.15.39-1.32,1.1-2.56,2.14-3.6,1.04-1.04,2.29-1.76,3.61-2.15,1.24-.36,2.35-1.08,3.14-2.11,0-.02.02-.02.02-.04.8-1.03,1.22-2.3,1.25-3.6.04-1.37.41-2.76,1.15-4.03.74-1.28,1.76-2.29,2.94-3,1.11-.67,2-1.66,2.5-2.86.02-.06.06-.12.08-.19.5-1.2.58-2.54.27-3.81-.32-1.34-.33-2.78.06-4.2.38-1.42,1.11-2.66,2.06-3.65.9-.95,1.51-2.14,1.68-3.43.02-.1.02-.19.04-.28.16-1.29-.1-2.59-.73-3.73-.66-1.21-1.03-2.59-1.03-4.07Zm-58.19,50c-27.62,0-50-22.38-50-50S32.38,10,60,10s50,22.38,50,50-22.38,50-50,50Z"/>
		
		<!-- Beaker and contents -->
		<g>
			<!-- Beaker outline -->
			<path d="m80.94,96h-41.88c-2.33,0-4.51-1.1-5.82-2.93-1.32-1.84-1.6-4.17-.76-6.25l16.28-40.08v-9.97c-.88-.59-1.45-1.57-1.45-2.67v-4.81c0-2.92,2.48-5.29,5.53-5.29h14.32c3.05,0,5.53,2.37,5.53,5.29v4.81c0,1.1-.57,2.08-1.45,2.67v9.97l16.28,40.08c.84,2.08.56,4.41-.76,6.25-1.32,1.84-3.49,2.93-5.82,2.93Zm-28.59-63.45h1.45v14.27c0,.55-.11,1.09-.31,1.6l-16.31,40.15c-.24.6-.17,1.25.22,1.78.38.53.99.84,1.66.84h41.88c.67,0,1.28-.31,1.66-.84.38-.53.46-1.18.22-1.78l-16.31-40.14c-.21-.52-.31-1.05-.31-1.6v-14.27h1.45v-3.26c0-.26-.22-.47-.49-.47h-14.32c-.27,0-.49.21-.49.47v3.26Z"/>
			
			<!-- Soil -->
			<path d="m42.56,77.87h34.71l4.39,10.77c.29.72-.26,1.49-1.06,1.49h-41.22c-.8,0-1.36-.77-1.06-1.49l4.25-10.77Z"/>
			
			<!-- Flower -->
			<g>
				<path class="b" d="m59.16,58.16c.13.12.33,0,.33-.21v-3.41c-.03-.09-.05-.15-.1-.21l-4.12-3.38c-.13-.12-.33,0-.33.21v3.41c0,.09.03.15.1.21l4.12,3.38Z"/>
				<path class="b" d="m59.16,63.68c.13.12.33,0,.33-.21v-3.41c-.03-.09-.05-.15-.1-.21l-4.12-3.38c-.13-.12-.33,0-.33.21v3.41c0,.09.03.15.1.21l4.12,3.38Z"/>
				<path class="b" d="m55.04,65.82l4.09,3.35c.13.12.33,0,.33-.21v-3.38c0-.09-.03-.18-.08-.21l-4.12-3.38c-.13-.12-.33,0-.33.21v3.41c0,.09.03.15.1.21Z"/>
				<path class="b" d="m60.52,54.55v3.41c0,.21.2.33.33.21l4.12-3.38c.05-.06.1-.12.1-.21v-3.41c0-.21-.2-.33-.33-.21l-4.14,3.38c-.05.06-.08.12-.08.21Z"/>
				<path class="b" d="m65.06,56.68c0-.21-.2-.33-.33-.21l-4.14,3.38c-.05.06-.1.12-.1.21v3.41c.03.21.2.33.35.21l4.12-3.38c.05-.06.1-.12.1-.21v-3.41Z"/>
				<path class="b" d="m64.73,61.99l-4.14,3.38c-.05.06-.1.12-.1.21v3.41c.03.18.2.3.35.18l4.12-3.38c.05-.06.1-.12.1-.21v-3.38c0-.21-.2-.33-.33-.21Z"/>
				<path class="b" d="m65.03,67.68v2.79c0,.09-.05.15-.1.21l-3.91,3.23v6.53h-2.06v-6.53l-3.91-3.2c-.08-.06-.1-.12-.1-.21v-2.79c0-.2.2-.32.33-.2l4.42,3.62c.1.09.2.12.3.12s.2-.03.3-.12l4.42-3.65c.13-.12.33,0,.33.2Z"/>
			</g>
		</g>
	</g>
</svg>